<?xml version="1.0" encoding="iso-8859-1"?>
<!-- Generator: Adobe Illustrator 21.0.0, SVG Export Plug-In . SVG Version: 6.00 Build 0)  -->
<svg xmlns="http://www.w3.org/2000/svg" xmlns:xlink="http://www.w3.org/1999/xlink" version="1.1" id="Capa_1" x="0px" y="0px" viewBox="0 0 512 512" style="enable-background:new 0 0 512 512;" xml:space="preserve" width="512" height="512">
<g>
	<path style="fill:#2C3B73;" d="M109.64,368.919l31.472,31.472l38.265-4.085l43.79-44.026c5.83-5.859,5.815-15.337-0.029-21.182   l-42.305-42.305c-5.845-5.83-15.308-5.859-21.182-0.029l-44.03,43.793L109.64,368.919z"/>
	<path style="fill:#47568C;" d="M316.932,0c-107.401,0-195,87.599-195,195c0,107.399,87.599,195,195,195s195-87.601,195-195   C511.932,87.599,424.333,0,316.932,0z"/>
	<path style="fill:#2C3B73;" d="M511.932,195c0,107.399-87.599,195-195,195V0C424.333,0,511.932,87.599,511.932,195z"/>
	<path style="fill:#9BFCFF;" d="M481.932,195c0,90.899-74.099,165-165,165s-165-74.101-165-165c0-90.901,74.099-165,165-165   S481.932,104.099,481.932,195z"/>
	<path style="fill:#76E2F8;" d="M481.932,195c0,90.899-74.099,165-165,165V30C407.833,30,481.932,104.099,481.932,195z"/>
	<g>
		<path style="fill:#979FEF;" d="M45.132,512c-11.675,0-22.91-4.556-31.626-12.817c-17.871-17.871-17.871-46.494-0.278-64.087    L115.633,332.49l63.809,63.809L77.036,498.904C68.042,507.444,56.807,512,45.132,512z"/>
	</g>
	<path style="fill:#979FEF;" d="M316.932,90c-24.901,0-45,20.099-45,45c0,24.899,20.099,45,45,45s45-20.101,45-45   C361.932,110.099,341.833,90,316.932,90z"/>
	<path style="fill:#979FEF;" d="M316.932,180c-41.4,0-75,33.6-75,75v30c0,8.399,6.599,15,15,15h120c8.401,0,15-6.601,15-15v-30   C391.932,213.6,358.332,180,316.932,180z"/>
	<path style="fill:#737EE6;" d="M361.932,135c0,24.899-20.099,45-45,45V90C341.833,90,361.932,110.099,361.932,135z"/>
	<path style="fill:#737EE6;" d="M391.932,255v30c0,8.399-6.599,15-15,15h-60V180C358.332,180,391.932,213.6,391.932,255z"/>
</g>















</svg>
